# xmcd
#
# Track frame offsets:
# 150
# 33378
# 45382
# 65020
# 107415
# 139540
#
# Disc length: 2383 seconds
#
#
# Revision: 2
# Processed by: cddbd v1.5.2PL0 Copyright (c) Steve Scherf et al.
# Submitted via: FreeRIP 2.951 
#
DISCID=47094d06
DTITLE=Grateful Dead - 03.29.1990 - Nassau Coliseum - Uniondale, NY
DYEAR=1990
DGENRE=Psychedelic Rock
TTITLE0=Drumz (with Branford Marsalis) -> Space (with Branford Marsalis) ->
TTITLE1=Dark Star (with Branford Marsalis) ->
TTITLE2=The Wheel (with Branford Marsalis) ->
TTITLE3=Throwing Stones (with Branford Marsalis) ->
TTITLE4=Turn On Your Lovelight (with Branford Marsalis) ->
TTITLE5=E: Knocking On Heaven's Door (with Branford Marsalis)
EXTD=SBD
EXTT0=
EXTT1=
EXTT2=
EXTT3=
EXTT4=
EXTT5=
PLAYORDER=
